<?xml version="1.0" encoding="UTF-8"?>
<svg id="Layer_1" xmlns="http://www.w3.org/2000/svg" xmlns:xlink="http://www.w3.org/1999/xlink" version="1.1" viewBox="0 0 502.84 135.96">
  <!-- Generator: Adobe Illustrator 29.6.1, SVG Export Plug-In . SVG Version: 2.1.1 Build 9)  -->
  <defs>
    <style>
      .st0 {
        fill: none;
      }

      .st1 {
        fill: #f20303;
      }

      .st2 {
        clip-path: url(#clippath-1);
      }

      .st3 {
        fill: #fc0606;
      }

      .st4 {
        clip-path: url(#clippath);
      }
    </style>
    <clipPath id="clippath">
      <rect class="st0" x="-5.54" y="61.8" width="493.86" height="65.11"/>
    </clipPath>
    <clipPath id="clippath-1">
      <rect class="st0" x="-1.33" y="-4.66" width="493.86" height="67.83"/>
    </clipPath>
  </defs>
  <g class="st4">
    <g>
      <path class="st1" d="M54.85,28.63l-1.86,68.55h-7.74l.49-14.59h-15.67l-5.58,14.59h-7.54L44.27,28.63h10.58ZM46.03,75.93l1.37-38.09-14.69,38.09h13.32Z"/>
      <path class="st1" d="M73.94,28.63h14.89c8.42,0,12.83,3.92,12.83,11.46,0,1.57-.2,3.43-.59,5.39l-1.27,5.97c-2.45,11.06-7.74,16.26-18.7,16.26h-7.64l-6.27,29.48h-7.83l14.59-68.55ZM81.78,60.75c5.78,0,8.81-2.74,10.18-9.5l1.47-6.76c.29-1.37.39-2.55.39-3.53,0-4.02-2.15-5.39-6.17-5.39h-7.34l-5.39,25.17h6.86Z"/>
      <path class="st1" d="M111.64,28.63h14.89c8.42,0,12.83,3.92,12.83,11.46,0,1.57-.2,3.43-.59,5.39l-1.27,5.97c-2.45,11.06-7.74,16.26-18.7,16.26h-7.64l-6.27,29.48h-7.83l14.59-68.55ZM119.48,60.75c5.78,0,8.81-2.74,10.18-9.5l1.47-6.76c.29-1.37.39-2.55.39-3.53,0-4.02-2.15-5.39-6.17-5.39h-7.34l-5.39,25.17h6.86Z"/>
      <path class="st1" d="M149.34,28.63h14.89c8.42,0,12.83,3.72,12.83,11.07,0,1.57-.2,3.33-.59,5.29l-.78,3.72c-1.76,8.52-4.99,12.73-11.07,14.2v.1c3.82.98,5.78,4.01,5.78,8.62,0,1.57-.2,3.33-.69,5.29l-2.55,12.24c-.49,2.45-.98,4.8-.98,6.66,0,.49,0,.88.1,1.37h-7.54c-.1-.69-.1-1.27-.1-1.96,0-1.57.2-3.53.88-6.66l2.64-12.63c.39-1.67.59-3.13.59-4.31,0-4.02-2.25-5.39-7.25-5.39h-6.37l-6.56,30.95h-7.83l14.59-68.55ZM156.3,59.28c5.97,0,9.7-2.35,11.36-9.7l1.08-4.9c.29-1.57.49-2.84.49-3.92,0-3.62-1.96-5.19-6.37-5.19h-7.15l-5.09,23.7h5.68Z"/>
      <path class="st1" d="M188.71,28.63h28.11l-1.47,6.95h-20.27l-4.8,22.33h16.45l-1.47,6.95h-16.45l-5.39,25.36h20.27l-1.47,6.95h-28.11l14.59-68.55Z"/>
      <path class="st1" d="M223.57,28.63h7.83l-6.27,29.28h16.16l6.27-29.28h7.74l-14.59,68.55h-7.74l6.86-32.32h-16.16l-6.85,32.32h-7.83l14.59-68.55Z"/>
      <path class="st1" d="M264.6,28.63h28.11l-1.47,6.95h-20.27l-4.8,22.33h16.45l-1.47,6.95h-16.45l-5.39,25.36h20.27l-1.47,6.95h-28.11l14.59-68.55Z"/>
      <path class="st1" d="M299.46,28.63h9.6l5.09,48.97,10.48-48.97h7.15l-14.59,68.55h-7.74l-5.58-55.72-11.85,55.72h-7.15l14.59-68.55Z"/>
      <path class="st1" d="M327.27,85.63c0-1.67.2-3.53.69-5.58l.49-2.35h7.34l-.78,3.62c-.2,1.18-.39,2.35-.39,3.33,0,4.6,2.74,6.56,7.34,6.56,6.46,0,9.3-5.88,9.3-12.05,0-4.7-2.06-9.01-7.05-14.3-5.88-6.36-8.62-12.14-8.62-18.21,0-10.87,6.46-19,17.33-19,9.11,0,14,4.31,14,12.24,0,1.76-.29,3.72-.78,5.78l-.29,1.27h-7.34l.59-2.45c.29-1.27.39-2.45.39-3.53,0-4.5-2.74-6.37-7.15-6.37-6.17,0-9.01,5.29-9.01,11.16,0,4.5,2.06,8.91,7.05,14.3,5.88,6.37,8.62,12.05,8.62,18.41,0,11.26-6.37,19.68-17.63,19.68-9.3,0-14.1-4.31-14.1-12.54Z"/>
      <path class="st1" d="M377.21,28.63h7.83l-14.59,68.55h-7.83l14.59-68.55Z"/>
      <path class="st1" d="M381.81,84.75c0-1.57.2-3.23.59-4.99l7.83-36.92c2.16-9.99,7.93-15.18,16.65-15.18,9.5,0,15.18,4.7,15.18,13.32,0,1.57-.2,3.33-.59,5.09l-7.83,37.02c-2.06,9.99-7.93,15.08-16.65,15.08-9.5,0-15.18-4.8-15.18-13.42ZM405.91,82.69l8.03-37.9c.29-1.18.39-2.25.39-3.23,0-4.5-2.74-6.95-7.74-6.95-4.41,0-7.34,2.45-8.62,8.52l-8.03,37.9c-.29,1.17-.39,2.15-.39,3.13,0,4.7,2.74,7.05,7.93,7.05,4.21,0,7.15-2.45,8.42-8.52Z"/>
      <path class="st1" d="M433.52,28.63h9.6l5.09,48.97,10.48-48.97h7.15l-14.59,68.55h-7.74l-5.58-55.72-11.85,55.72h-7.15l14.59-68.55Z"/>
    </g>
  </g>
  <g class="st2">
    <g>
      <path class="st3" d="M59.06,28.19l-1.86,68.55h-7.74l.49-14.59h-15.67l-5.58,14.59h-7.54L48.49,28.19h10.58ZM50.25,75.49l1.37-38.09-14.69,38.09h13.32Z"/>
      <path class="st3" d="M78.16,28.19h14.89c8.42,0,12.83,3.92,12.83,11.46,0,1.57-.2,3.43-.59,5.39l-1.27,5.97c-2.45,11.06-7.74,16.26-18.7,16.26h-7.64l-6.27,29.48h-7.83l14.59-68.55ZM85.99,60.31c5.78,0,8.81-2.74,10.18-9.5l1.47-6.76c.29-1.37.39-2.55.39-3.53,0-4.02-2.15-5.39-6.17-5.39h-7.34l-5.39,25.17h6.86Z"/>
      <path class="st3" d="M115.86,28.19h14.89c8.42,0,12.83,3.92,12.83,11.46,0,1.57-.2,3.43-.59,5.39l-1.27,5.97c-2.45,11.06-7.74,16.26-18.7,16.26h-7.64l-6.27,29.48h-7.83l14.59-68.55ZM123.69,60.31c5.78,0,8.81-2.74,10.18-9.5l1.47-6.76c.29-1.37.39-2.55.39-3.53,0-4.02-2.15-5.39-6.17-5.39h-7.34l-5.39,25.17h6.86Z"/>
      <path class="st3" d="M153.56,28.19h14.89c8.42,0,12.83,3.72,12.83,11.07,0,1.57-.2,3.33-.59,5.29l-.78,3.72c-1.76,8.52-4.99,12.73-11.07,14.2v.1c3.82.98,5.78,4.01,5.78,8.62,0,1.57-.2,3.33-.69,5.29l-2.55,12.24c-.49,2.45-.98,4.8-.98,6.66,0,.49,0,.88.1,1.37h-7.54c-.1-.69-.1-1.27-.1-1.96,0-1.57.2-3.53.88-6.66l2.64-12.63c.39-1.67.59-3.13.59-4.31,0-4.02-2.25-5.39-7.25-5.39h-6.37l-6.56,30.95h-7.83l14.59-68.55ZM160.51,58.84c5.97,0,9.7-2.35,11.36-9.7l1.08-4.9c.29-1.57.49-2.84.49-3.92,0-3.62-1.96-5.19-6.37-5.19h-7.15l-5.09,23.7h5.68Z"/>
      <path class="st3" d="M192.93,28.19h28.11l-1.47,6.95h-20.27l-4.8,22.33h16.45l-1.47,6.95h-16.45l-5.39,25.36h20.27l-1.47,6.95h-28.11l14.59-68.55Z"/>
      <path class="st3" d="M227.79,28.19h7.83l-6.27,29.28h16.16l6.27-29.28h7.74l-14.59,68.55h-7.74l6.86-32.32h-16.16l-6.85,32.32h-7.83l14.59-68.55Z"/>
      <path class="st3" d="M268.82,28.19h28.11l-1.47,6.95h-20.27l-4.8,22.33h16.45l-1.47,6.95h-16.45l-5.39,25.36h20.27l-1.47,6.95h-28.11l14.59-68.55Z"/>
      <path class="st3" d="M303.68,28.19h9.6l5.09,48.97,10.48-48.97h7.15l-14.59,68.55h-7.74l-5.58-55.72-11.85,55.72h-7.15l14.59-68.55Z"/>
      <path class="st3" d="M331.49,85.18c0-1.67.2-3.53.69-5.58l.49-2.35h7.34l-.78,3.62c-.2,1.18-.39,2.35-.39,3.33,0,4.6,2.74,6.56,7.34,6.56,6.46,0,9.3-5.88,9.3-12.05,0-4.7-2.06-9.01-7.05-14.3-5.88-6.36-8.62-12.14-8.62-18.21,0-10.87,6.46-19,17.33-19,9.11,0,14,4.31,14,12.24,0,1.76-.29,3.72-.78,5.78l-.29,1.27h-7.34l.59-2.45c.29-1.27.39-2.45.39-3.53,0-4.5-2.74-6.37-7.15-6.37-6.17,0-9.01,5.29-9.01,11.16,0,4.5,2.06,8.91,7.05,14.3,5.88,6.37,8.62,12.05,8.62,18.41,0,11.26-6.37,19.68-17.63,19.68-9.3,0-14.1-4.31-14.1-12.54Z"/>
      <path class="st3" d="M381.43,28.19h7.83l-14.59,68.55h-7.83l14.59-68.55Z"/>
      <path class="st3" d="M386.03,84.3c0-1.57.2-3.23.59-4.99l7.83-36.92c2.16-9.99,7.93-15.18,16.65-15.18,9.5,0,15.18,4.7,15.18,13.32,0,1.57-.2,3.33-.59,5.09l-7.83,37.02c-2.06,9.99-7.93,15.08-16.65,15.08-9.5,0-15.18-4.8-15.18-13.42ZM410.12,82.24l8.03-37.9c.29-1.18.39-2.25.39-3.23,0-4.5-2.74-6.95-7.74-6.95-4.41,0-7.34,2.45-8.62,8.52l-8.03,37.9c-.29,1.17-.39,2.15-.39,3.13,0,4.7,2.74,7.05,7.93,7.05,4.21,0,7.15-2.45,8.42-8.52Z"/>
      <path class="st3" d="M437.74,28.19h9.6l5.09,48.97,10.48-48.97h7.15l-14.59,68.55h-7.74l-5.58-55.72-11.85,55.72h-7.15l14.59-68.55Z"/>
    </g>
  </g>
</svg>