<?xml version="1.0" encoding="UTF-8"?>
<svg id="Layer_1" xmlns="http://www.w3.org/2000/svg" version="1.1" viewBox="0 0 153.06 134.94">
  <!-- Generator: Adobe Illustrator 29.5.1, SVG Export Plug-In . SVG Version: 2.1.0 Build 141)  -->
  <defs>
    <style>
      .st0 {
        fill: #a7a082;
      }

      .st0, .st1 {
        fill-rule: evenodd;
      }
    </style>
  </defs>
  <path class="st0" d="M91.69,14.42l25.31,43.84,25.31,43.84c3.03,5.25,3.03,11.26,0,16.5-3.03,5.25-8.23,8.25-14.29,8.25H26.77c-6.06,0-11.26-3-14.29-8.25-3.03-5.25-3.03-11.26,0-16.5l25.31-43.84L63.1,14.42c3.03-5.25,8.23-8.25,14.29-8.25s11.26,3,14.29,8.25h0Z"/>
  <path d="M81.69,20.18c-.48-.84-1.08-1.46-1.78-1.86-.69-.4-1.54-.61-2.52-.61s-1.82.2-2.51.6h0c-.71.41-1.31,1.04-1.79,1.87L22.47,107.86c-.48.83-.72,1.67-.72,2.49s.24,1.65.72,2.48h0c.49.84,1.09,1.47,1.78,1.87.69.4,1.54.61,2.52.61h101.25c.98,0,1.82-.2,2.52-.61.69-.4,1.29-1.03,1.78-1.87h0c.48-.83.72-1.66.72-2.48s-.24-1.65-.72-2.48h0S81.69,20.18,81.69,20.18h0ZM82.18,14.38c1.4.81,2.57,2,3.46,3.54l50.62,87.67h0c.9,1.55,1.34,3.15,1.34,4.76s-.45,3.2-1.34,4.75h0c-.89,1.54-2.05,2.73-3.46,3.54-1.41.81-3.01,1.23-4.78,1.23H26.77c-1.77,0-3.37-.42-4.78-1.23-1.41-.81-2.57-2-3.46-3.53h0c-.9-1.56-1.34-3.16-1.34-4.76s.45-3.2,1.34-4.75L69.15,17.92c.89-1.55,2.05-2.74,3.45-3.54h0c1.41-.81,3.01-1.23,4.78-1.23s3.37.42,4.78,1.23h0Z"/>
  <path class="st1" d="M77.39,44.03c-4.31,0-6.6.41-6.6,2.99,0,1.55.27,3.71.94,9.17l3.9,33.29c.67.62,2.69.62,3.5,0l3.9-33.29c.67-5.46.94-7.63.94-9.17,0-2.58-2.29-2.99-6.6-2.99h0Z"/>
  <path class="st1" d="M77.39,105.04c3.5,0,5.77-2.37,5.77-5.67s-2.27-6.08-5.77-6.08c-3.3,0-5.77,2.58-5.77,6.08s2.78,5.67,5.77,5.67h0Z"/>
</svg>